<?xml version="1.0" encoding="utf-8" standalone="no"?>
<!DOCTYPE svg PUBLIC "-//W3C//DTD SVG 1.1//EN"
  "http://www.w3.org/Graphics/SVG/1.1/DTD/svg11.dtd">
<!-- Created with matplotlib (https://matplotlib.org/) -->
<svg height="261.28875pt" version="1.1" viewBox="0 0 390.555 261.28875" width="390.555pt" xmlns="http://www.w3.org/2000/svg" xmlns:xlink="http://www.w3.org/1999/xlink">
 <defs>
  <style type="text/css">
*{stroke-linecap:butt;stroke-linejoin:round;}
  </style>
 </defs>
 <g id="figure_1">
  <g id="patch_1">
   <path d="M 0 261.28875 
L 390.555 261.28875 
L 390.555 0 
L 0 0 
z
" style="fill:#ffffff;"/>
  </g>
  <g id="axes_1">
   <g id="patch_2">
    <path d="M 42.495 224.64 
L 377.295 224.64 
L 377.295 7.2 
L 42.495 7.2 
z
" style="fill:#ffffff;"/>
   </g>
   <g id="patch_3">
    <path clip-path="url(#p1bdca8c771)" d="M 42.495 214.643397 
L 45.843 214.643397 
L 45.843 212.703895 
L 42.495 212.703895 
z
" style="fill:#1f77b4;"/>
   </g>
   <g id="patch_4">
    <path clip-path="url(#p1bdca8c771)" d="M 45.843 214.643397 
L 49.191 214.643397 
L 49.191 214.050771 
L 45.843 214.050771 
z
" style="fill:#1f77b4;"/>
   </g>
   <g id="patch_5">
    <path clip-path="url(#p1bdca8c771)" d="M 49.191 214.643397 
L 52.539 214.643397 
L 52.539 214.427896 
L 49.191 214.427896 
z
" style="fill:#1f77b4;"/>
   </g>
   <g id="patch_6">
    <path clip-path="url(#p1bdca8c771)" d="M 52.539 214.643397 
L 55.887 214.643397 
L 55.887 214.158521 
L 52.539 214.158521 
z
" style="fill:#1f77b4;"/>
   </g>
   <g id="patch_7">
    <path clip-path="url(#p1bdca8c771)" d="M 55.887 214.643397 
L 59.235 214.643397 
L 59.235 214.104646 
L 55.887 214.104646 
z
" style="fill:#1f77b4;"/>
   </g>
   <g id="patch_8">
    <path clip-path="url(#p1bdca8c771)" d="M 59.235 214.643397 
L 62.583 214.643397 
L 62.583 214.104646 
L 59.235 214.104646 
z
" style="fill:#1f77b4;"/>
   </g>
   <g id="patch_9">
    <path clip-path="url(#p1bdca8c771)" d="M 62.583 214.643397 
L 65.931 214.643397 
L 65.931 214.266271 
L 62.583 214.266271 
z
" style="fill:#1f77b4;"/>
   </g>
   <g id="patch_10">
    <path clip-path="url(#p1bdca8c771)" d="M 65.931 214.643397 
L 69.279 214.643397 
L 69.279 214.266271 
L 65.931 214.266271 
z
" style="fill:#1f77b4;"/>
   </g>
   <g id="patch_11">
    <path clip-path="url(#p1bdca8c771)" d="M 69.279 214.643397 
L 72.627 214.643397 
L 72.627 213.673646 
L 69.279 213.673646 
z
" style="fill:#1f77b4;"/>
   </g>
   <g id="patch_12">
    <path clip-path="url(#p1bdca8c771)" d="M 72.627 214.643397 
L 75.975 214.643397 
L 75.975 214.050771 
L 72.627 214.050771 
z
" style="fill:#1f77b4;"/>
   </g>
   <g id="patch_13">
    <path clip-path="url(#p1bdca8c771)" d="M 75.975 214.643397 
L 79.323 214.643397 
L 79.323 214.481771 
L 75.975 214.481771 
z
" style="fill:#1f77b4;"/>
   </g>
   <g id="patch_14">
    <path clip-path="url(#p1bdca8c771)" d="M 79.323 214.643397 
L 82.671 214.643397 
L 82.671 214.158521 
L 79.323 214.158521 
z
" style="fill:#1f77b4;"/>
   </g>
   <g id="patch_15">
    <path clip-path="url(#p1bdca8c771)" d="M 82.671 214.643397 
L 86.019 214.643397 
L 86.019 213.996896 
L 82.671 213.996896 
z
" style="fill:#1f77b4;"/>
   </g>
   <g id="patch_16">
    <path clip-path="url(#p1bdca8c771)" d="M 86.019 214.643397 
L 89.367 214.643397 
L 89.367 213.188771 
L 86.019 213.188771 
z
" style="fill:#1f77b4;"/>
   </g>
   <g id="patch_17">
    <path clip-path="url(#p1bdca8c771)" d="M 89.367 214.643397 
L 92.715 214.643397 
L 92.715 214.212396 
L 89.367 214.212396 
z
" style="fill:#1f77b4;"/>
   </g>
   <g id="patch_18">
    <path clip-path="url(#p1bdca8c771)" d="M 92.715 214.643397 
L 96.063 214.643397 
L 96.063 213.673646 
L 92.715 213.673646 
z
" style="fill:#1f77b4;"/>
   </g>
   <g id="patch_19">
    <path clip-path="url(#p1bdca8c771)" d="M 96.063 214.643397 
L 99.411 214.643397 
L 99.411 214.050771 
L 96.063 214.050771 
z
" style="fill:#1f77b4;"/>
   </g>
   <g id="patch_20">
    <path clip-path="url(#p1bdca8c771)" d="M 99.411 214.643397 
L 102.759 214.643397 
L 102.759 214.374021 
L 99.411 214.374021 
z
" style="fill:#1f77b4;"/>
   </g>
   <g id="patch_21">
    <path clip-path="url(#p1bdca8c771)" d="M 102.759 214.643397 
L 106.107 214.643397 
L 106.107 214.320146 
L 102.759 214.320146 
z
" style="fill:#1f77b4;"/>
   </g>
   <g id="patch_22">
    <path clip-path="url(#p1bdca8c771)" d="M 106.107 214.643397 
L 109.455 214.643397 
L 109.455 214.212396 
L 106.107 214.212396 
z
" style="fill:#1f77b4;"/>
   </g>
   <g id="patch_23">
    <path clip-path="url(#p1bdca8c771)" d="M 109.455 214.643397 
L 112.803 214.643397 
L 112.803 213.996896 
L 109.455 213.996896 
z
" style="fill:#1f77b4;"/>
   </g>
   <g id="patch_24">
    <path clip-path="url(#p1bdca8c771)" d="M 112.803 214.643397 
L 116.151 214.643397 
L 116.151 214.158521 
L 112.803 214.158521 
z
" style="fill:#1f77b4;"/>
   </g>
   <g id="patch_25">
    <path clip-path="url(#p1bdca8c771)" d="M 116.151 214.643397 
L 119.499 214.643397 
L 119.499 214.374021 
L 116.151 214.374021 
z
" style="fill:#1f77b4;"/>
   </g>
   <g id="patch_26">
    <path clip-path="url(#p1bdca8c771)" d="M 119.499 214.643397 
L 122.847 214.643397 
L 122.847 214.266271 
L 119.499 214.266271 
z
" style="fill:#1f77b4;"/>
   </g>
   <g id="patch_27">
    <path clip-path="url(#p1bdca8c771)" d="M 122.847 214.643397 
L 126.195 214.643397 
L 126.195 214.427896 
L 122.847 214.427896 
z
" style="fill:#1f77b4;"/>
   </g>
   <g id="patch_28">
    <path clip-path="url(#p1bdca8c771)" d="M 126.195 214.643397 
L 129.543 214.643397 
L 129.543 214.481771 
L 126.195 214.481771 
z
" style="fill:#1f77b4;"/>
   </g>
   <g id="patch_29">
    <path clip-path="url(#p1bdca8c771)" d="M 129.543 214.643397 
L 132.891 214.643397 
L 132.891 214.427896 
L 129.543 214.427896 
z
" style="fill:#1f77b4;"/>
   </g>
   <g id="patch_30">
    <path clip-path="url(#p1bdca8c771)" d="M 132.891 214.643397 
L 136.239 214.643397 
L 136.239 214.427896 
L 132.891 214.427896 
z
" style="fill:#1f77b4;"/>
   </g>
   <g id="patch_31">
    <path clip-path="url(#p1bdca8c771)" d="M 136.239 214.643397 
L 139.587 214.643397 
L 139.587 214.535647 
L 136.239 214.535647 
z
" style="fill:#1f77b4;"/>
   </g>
   <g id="patch_32">
    <path clip-path="url(#p1bdca8c771)" d="M 139.587 214.643397 
L 142.935 214.643397 
L 142.935 214.320146 
L 139.587 214.320146 
z
" style="fill:#1f77b4;"/>
   </g>
   <g id="patch_33">
    <path clip-path="url(#p1bdca8c771)" d="M 142.935 214.643397 
L 146.283 214.643397 
L 146.283 214.104646 
L 142.935 214.104646 
z
" style="fill:#1f77b4;"/>
   </g>
   <g id="patch_34">
    <path clip-path="url(#p1bdca8c771)" d="M 146.283 214.643397 
L 149.631 214.643397 
L 149.631 214.212396 
L 146.283 214.212396 
z
" style="fill:#1f77b4;"/>
   </g>
   <g id="patch_35">
    <path clip-path="url(#p1bdca8c771)" d="M 149.631 214.643397 
L 152.979 214.643397 
L 152.979 214.427896 
L 149.631 214.427896 
z
" style="fill:#1f77b4;"/>
   </g>
   <g id="patch_36">
    <path clip-path="url(#p1bdca8c771)" d="M 152.979 214.643397 
L 156.327 214.643397 
L 156.327 214.374021 
L 152.979 214.374021 
z
" style="fill:#1f77b4;"/>
   </g>
   <g id="patch_37">
    <path clip-path="url(#p1bdca8c771)" d="M 156.327 214.643397 
L 159.675 214.643397 
L 159.675 214.158521 
L 156.327 214.158521 
z
" style="fill:#1f77b4;"/>
   </g>
   <g id="patch_38">
    <path clip-path="url(#p1bdca8c771)" d="M 159.675 214.643397 
L 163.023 214.643397 
L 163.023 214.374021 
L 159.675 214.374021 
z
" style="fill:#1f77b4;"/>
   </g>
   <g id="patch_39">
    <path clip-path="url(#p1bdca8c771)" d="M 163.023 214.643397 
L 166.371 214.643397 
L 166.371 214.374021 
L 163.023 214.374021 
z
" style="fill:#1f77b4;"/>
   </g>
   <g id="patch_40">
    <path clip-path="url(#p1bdca8c771)" d="M 166.371 214.643397 
L 169.719 214.643397 
L 169.719 214.427896 
L 166.371 214.427896 
z
" style="fill:#1f77b4;"/>
   </g>
   <g id="patch_41">
    <path clip-path="url(#p1bdca8c771)" d="M 169.719 214.643397 
L 173.067 214.643397 
L 173.067 214.374021 
L 169.719 214.374021 
z
" style="fill:#1f77b4;"/>
   </g>
   <g id="patch_42">
    <path clip-path="url(#p1bdca8c771)" d="M 173.067 214.643397 
L 176.415 214.643397 
L 176.415 214.320146 
L 173.067 214.320146 
z
" style="fill:#1f77b4;"/>
   </g>
   <g id="patch_43">
    <path clip-path="url(#p1bdca8c771)" d="M 176.415 214.643397 
L 179.763 214.643397 
L 179.763 214.266271 
L 176.415 214.266271 
z
" style="fill:#1f77b4;"/>
   </g>
   <g id="patch_44">
    <path clip-path="url(#p1bdca8c771)" d="M 179.763 214.643397 
L 183.111 214.643397 
L 183.111 214.212396 
L 179.763 214.212396 
z
" style="fill:#1f77b4;"/>
   </g>
   <g id="patch_45">
    <path clip-path="url(#p1bdca8c771)" d="M 183.111 214.643397 
L 186.459 214.643397 
L 186.459 213.404271 
L 183.111 213.404271 
z
" style="fill:#1f77b4;"/>
   </g>
   <g id="patch_46">
    <path clip-path="url(#p1bdca8c771)" d="M 186.459 214.643397 
L 189.807 214.643397 
L 189.807 214.050771 
L 186.459 214.050771 
z
" style="fill:#1f77b4;"/>
   </g>
   <g id="patch_47">
    <path clip-path="url(#p1bdca8c771)" d="M 189.807 214.643397 
L 193.155 214.643397 
L 193.155 214.535647 
L 189.807 214.535647 
z
" style="fill:#1f77b4;"/>
   </g>
   <g id="patch_48">
    <path clip-path="url(#p1bdca8c771)" d="M 193.155 214.643397 
L 196.503 214.643397 
L 196.503 213.512021 
L 193.155 213.512021 
z
" style="fill:#1f77b4;"/>
   </g>
   <g id="patch_49">
    <path clip-path="url(#p1bdca8c771)" d="M 196.503 214.643397 
L 199.851 214.643397 
L 199.851 213.727521 
L 196.503 213.727521 
z
" style="fill:#1f77b4;"/>
   </g>
   <g id="patch_50">
    <path clip-path="url(#p1bdca8c771)" d="M 199.851 214.643397 
L 203.199 214.643397 
L 203.199 213.458146 
L 199.851 213.458146 
z
" style="fill:#1f77b4;"/>
   </g>
   <g id="patch_51">
    <path clip-path="url(#p1bdca8c771)" d="M 203.199 214.643397 
L 206.547 214.643397 
L 206.547 213.673646 
L 203.199 213.673646 
z
" style="fill:#1f77b4;"/>
   </g>
   <g id="patch_52">
    <path clip-path="url(#p1bdca8c771)" d="M 206.547 214.643397 
L 209.895 214.643397 
L 209.895 214.050771 
L 206.547 214.050771 
z
" style="fill:#1f77b4;"/>
   </g>
   <g id="patch_53">
    <path clip-path="url(#p1bdca8c771)" d="M 209.895 214.643397 
L 213.243 214.643397 
L 213.243 214.643397 
L 209.895 214.643397 
z
" style="fill:#1f77b4;"/>
   </g>
   <g id="patch_54">
    <path clip-path="url(#p1bdca8c771)" d="M 213.243 214.643397 
L 216.591 214.643397 
L 216.591 214.643397 
L 213.243 214.643397 
z
" style="fill:#1f77b4;"/>
   </g>
   <g id="patch_55">
    <path clip-path="url(#p1bdca8c771)" d="M 216.591 214.643397 
L 219.939 214.643397 
L 219.939 214.643397 
L 216.591 214.643397 
z
" style="fill:#1f77b4;"/>
   </g>
   <g id="patch_56">
    <path clip-path="url(#p1bdca8c771)" d="M 219.939 214.643397 
L 223.287 214.643397 
L 223.287 214.643397 
L 219.939 214.643397 
z
" style="fill:#1f77b4;"/>
   </g>
   <g id="patch_57">
    <path clip-path="url(#p1bdca8c771)" d="M 223.287 214.643397 
L 226.635 214.643397 
L 226.635 214.643397 
L 223.287 214.643397 
z
" style="fill:#1f77b4;"/>
   </g>
   <g id="patch_58">
    <path clip-path="url(#p1bdca8c771)" d="M 226.635 214.643397 
L 229.983 214.643397 
L 229.983 214.643397 
L 226.635 214.643397 
z
" style="fill:#1f77b4;"/>
   </g>
   <g id="patch_59">
    <path clip-path="url(#p1bdca8c771)" d="M 229.983 214.643397 
L 233.331 214.643397 
L 233.331 214.643397 
L 229.983 214.643397 
z
" style="fill:#1f77b4;"/>
   </g>
   <g id="patch_60">
    <path clip-path="url(#p1bdca8c771)" d="M 233.331 214.643397 
L 236.679 214.643397 
L 236.679 214.643397 
L 233.331 214.643397 
z
" style="fill:#1f77b4;"/>
   </g>
   <g id="patch_61">
    <path clip-path="url(#p1bdca8c771)" d="M 236.679 214.643397 
L 240.027 214.643397 
L 240.027 214.643397 
L 236.679 214.643397 
z
" style="fill:#1f77b4;"/>
   </g>
   <g id="patch_62">
    <path clip-path="url(#p1bdca8c771)" d="M 240.027 214.643397 
L 243.375 214.643397 
L 243.375 214.643397 
L 240.027 214.643397 
z
" style="fill:#1f77b4;"/>
   </g>
   <g id="patch_63">
    <path clip-path="url(#p1bdca8c771)" d="M 243.375 214.643397 
L 246.723 214.643397 
L 246.723 214.643397 
L 243.375 214.643397 
z
" style="fill:#1f77b4;"/>
   </g>
   <g id="patch_64">
    <path clip-path="url(#p1bdca8c771)" d="M 246.723 214.643397 
L 250.071 214.643397 
L 250.071 214.643397 
L 246.723 214.643397 
z
" style="fill:#1f77b4;"/>
   </g>
   <g id="patch_65">
    <path clip-path="url(#p1bdca8c771)" d="M 250.071 214.643397 
L 253.419 214.643397 
L 253.419 214.643397 
L 250.071 214.643397 
z
" style="fill:#1f77b4;"/>
   </g>
   <g id="patch_66">
    <path clip-path="url(#p1bdca8c771)" d="M 253.419 214.643397 
L 256.767 214.643397 
L 256.767 214.643397 
L 253.419 214.643397 
z
" style="fill:#1f77b4;"/>
   </g>
   <g id="patch_67">
    <path clip-path="url(#p1bdca8c771)" d="M 256.767 214.643397 
L 260.115 214.643397 
L 260.115 214.643397 
L 256.767 214.643397 
z
" style="fill:#1f77b4;"/>
   </g>
   <g id="patch_68">
    <path clip-path="url(#p1bdca8c771)" d="M 260.115 214.643397 
L 263.463 214.643397 
L 263.463 214.643397 
L 260.115 214.643397 
z
" style="fill:#1f77b4;"/>
   </g>
   <g id="patch_69">
    <path clip-path="url(#p1bdca8c771)" d="M 263.463 214.643397 
L 266.811 214.643397 
L 266.811 214.643397 
L 263.463 214.643397 
z
" style="fill:#1f77b4;"/>
   </g>
   <g id="patch_70">
    <path clip-path="url(#p1bdca8c771)" d="M 266.811 214.643397 
L 270.159 214.643397 
L 270.159 214.643397 
L 266.811 214.643397 
z
" style="fill:#1f77b4;"/>
   </g>
   <g id="patch_71">
    <path clip-path="url(#p1bdca8c771)" d="M 270.159 214.643397 
L 273.507 214.643397 
L 273.507 214.643397 
L 270.159 214.643397 
z
" style="fill:#1f77b4;"/>
   </g>
   <g id="patch_72">
    <path clip-path="url(#p1bdca8c771)" d="M 273.507 214.643397 
L 276.855 214.643397 
L 276.855 214.643397 
L 273.507 214.643397 
z
" style="fill:#1f77b4;"/>
   </g>
   <g id="patch_73">
    <path clip-path="url(#p1bdca8c771)" d="M 276.855 214.643397 
L 280.203 214.643397 
L 280.203 214.643397 
L 276.855 214.643397 
z
" style="fill:#1f77b4;"/>
   </g>
   <g id="patch_74">
    <path clip-path="url(#p1bdca8c771)" d="M 280.203 214.643397 
L 283.551 214.643397 
L 283.551 214.643397 
L 280.203 214.643397 
z
" style="fill:#1f77b4;"/>
   </g>
   <g id="patch_75">
    <path clip-path="url(#p1bdca8c771)" d="M 283.551 214.643397 
L 286.899 214.643397 
L 286.899 214.643397 
L 283.551 214.643397 
z
" style="fill:#1f77b4;"/>
   </g>
   <g id="patch_76">
    <path clip-path="url(#p1bdca8c771)" d="M 286.899 214.643397 
L 290.247 214.643397 
L 290.247 214.643397 
L 286.899 214.643397 
z
" style="fill:#1f77b4;"/>
   </g>
   <g id="patch_77">
    <path clip-path="url(#p1bdca8c771)" d="M 290.247 214.643397 
L 293.595 214.643397 
L 293.595 214.643397 
L 290.247 214.643397 
z
" style="fill:#1f77b4;"/>
   </g>
   <g id="patch_78">
    <path clip-path="url(#p1bdca8c771)" d="M 293.595 214.643397 
L 296.943 214.643397 
L 296.943 214.643397 
L 293.595 214.643397 
z
" style="fill:#1f77b4;"/>
   </g>
   <g id="patch_79">
    <path clip-path="url(#p1bdca8c771)" d="M 296.943 214.643397 
L 300.291 214.643397 
L 300.291 214.643397 
L 296.943 214.643397 
z
" style="fill:#1f77b4;"/>
   </g>
   <g id="patch_80">
    <path clip-path="url(#p1bdca8c771)" d="M 300.291 214.643397 
L 303.639 214.643397 
L 303.639 214.643397 
L 300.291 214.643397 
z
" style="fill:#1f77b4;"/>
   </g>
   <g id="patch_81">
    <path clip-path="url(#p1bdca8c771)" d="M 303.639 214.643397 
L 306.987 214.643397 
L 306.987 214.643397 
L 303.639 214.643397 
z
" style="fill:#1f77b4;"/>
   </g>
   <g id="patch_82">
    <path clip-path="url(#p1bdca8c771)" d="M 306.987 214.643397 
L 310.335 214.643397 
L 310.335 214.643397 
L 306.987 214.643397 
z
" style="fill:#1f77b4;"/>
   </g>
   <g id="patch_83">
    <path clip-path="url(#p1bdca8c771)" d="M 310.335 214.643397 
L 313.683 214.643397 
L 313.683 214.643397 
L 310.335 214.643397 
z
" style="fill:#1f77b4;"/>
   </g>
   <g id="patch_84">
    <path clip-path="url(#p1bdca8c771)" d="M 313.683 214.643397 
L 317.031 214.643397 
L 317.031 214.643397 
L 313.683 214.643397 
z
" style="fill:#1f77b4;"/>
   </g>
   <g id="patch_85">
    <path clip-path="url(#p1bdca8c771)" d="M 317.031 214.643397 
L 320.379 214.643397 
L 320.379 214.050771 
L 317.031 214.050771 
z
" style="fill:#1f77b4;"/>
   </g>
   <g id="patch_86">
    <path clip-path="url(#p1bdca8c771)" d="M 320.379 214.643397 
L 323.727 214.643397 
L 323.727 213.565896 
L 320.379 213.565896 
z
" style="fill:#1f77b4;"/>
   </g>
   <g id="patch_87">
    <path clip-path="url(#p1bdca8c771)" d="M 323.727 214.643397 
L 327.075 214.643397 
L 327.075 212.272895 
L 323.727 212.272895 
z
" style="fill:#1f77b4;"/>
   </g>
   <g id="patch_88">
    <path clip-path="url(#p1bdca8c771)" d="M 327.075 214.643397 
L 330.423 214.643397 
L 330.423 200.851387 
L 327.075 200.851387 
z
" style="fill:#1f77b4;"/>
   </g>
   <g id="patch_89">
    <path clip-path="url(#p1bdca8c771)" d="M 330.423 214.643397 
L 333.771 214.643397 
L 333.771 187.382628 
L 330.423 187.382628 
z
" style="fill:#1f77b4;"/>
   </g>
   <g id="patch_90">
    <path clip-path="url(#p1bdca8c771)" d="M 333.771 214.643397 
L 337.119 214.643397 
L 337.119 163.354361 
L 333.771 163.354361 
z
" style="fill:#1f77b4;"/>
   </g>
   <g id="patch_91">
    <path clip-path="url(#p1bdca8c771)" d="M 337.119 214.643397 
L 340.467 214.643397 
L 340.467 139.81097 
L 337.119 139.81097 
z
" style="fill:#1f77b4;"/>
   </g>
   <g id="patch_92">
    <path clip-path="url(#p1bdca8c771)" d="M 340.467 214.643397 
L 343.815 214.643397 
L 343.815 102.206195 
L 340.467 102.206195 
z
" style="fill:#1f77b4;"/>
   </g>
   <g id="patch_93">
    <path clip-path="url(#p1bdca8c771)" d="M 343.815 214.643397 
L 347.163 214.643397 
L 347.163 48.492783 
L 343.815 48.492783 
z
" style="fill:#1f77b4;"/>
   </g>
   <g id="patch_94">
    <path clip-path="url(#p1bdca8c771)" d="M 347.163 214.643397 
L 350.511 214.643397 
L 350.511 17.083636 
L 347.163 17.083636 
z
" style="fill:#1f77b4;"/>
   </g>
   <g id="patch_95">
    <path clip-path="url(#p1bdca8c771)" d="M 350.511 214.643397 
L 353.859 214.643397 
L 353.859 26.296268 
L 350.511 26.296268 
z
" style="fill:#1f77b4;"/>
   </g>
   <g id="patch_96">
    <path clip-path="url(#p1bdca8c771)" d="M 353.859 214.643397 
L 357.207 214.643397 
L 357.207 104.792196 
L 353.859 104.792196 
z
" style="fill:#1f77b4;"/>
   </g>
   <g id="patch_97">
    <path clip-path="url(#p1bdca8c771)" d="M 357.207 214.643397 
L 360.555 214.643397 
L 360.555 160.283484 
L 357.207 160.283484 
z
" style="fill:#1f77b4;"/>
   </g>
   <g id="patch_98">
    <path clip-path="url(#p1bdca8c771)" d="M 360.555 214.643397 
L 363.903 214.643397 
L 363.903 190.93838 
L 360.555 190.93838 
z
" style="fill:#1f77b4;"/>
   </g>
   <g id="patch_99">
    <path clip-path="url(#p1bdca8c771)" d="M 363.903 214.643397 
L 367.251 214.643397 
L 367.251 198.642511 
L 363.903 198.642511 
z
" style="fill:#1f77b4;"/>
   </g>
   <g id="patch_100">
    <path clip-path="url(#p1bdca8c771)" d="M 367.251 214.643397 
L 370.599 214.643397 
L 370.599 208.932643 
L 367.251 208.932643 
z
" style="fill:#1f77b4;"/>
   </g>
   <g id="patch_101">
    <path clip-path="url(#p1bdca8c771)" d="M 370.599 214.643397 
L 373.947 214.643397 
L 373.947 212.165145 
L 370.599 212.165145 
z
" style="fill:#1f77b4;"/>
   </g>
   <g id="patch_102">
    <path clip-path="url(#p1bdca8c771)" d="M 373.947 214.643397 
L 377.295 214.643397 
L 377.295 211.195394 
L 373.947 211.195394 
z
" style="fill:#1f77b4;"/>
   </g>
   <g id="matplotlib.axis_1">
    <g id="xtick_1">
     <g id="line2d_1">
      <defs>
       <path d="M 0 0 
L 0 -3.5 
" id="m16f8771615" style="stroke:#000000;stroke-width:0.8;"/>
      </defs>
      <g>
       <use style="stroke:#000000;stroke-width:0.8;" x="42.495" xlink:href="#m16f8771615" y="224.64"/>
      </g>
     </g>
     <g id="text_1">
      <!-- $0$ -->
      <defs>
       <path d="M 47.59375 33 
Q 47.59375 26.296875 46.296875 20.34375 
Q 45 14.40625 42.453125 9.40625 
Q 39.90625 4.40625 35.40625 1.5 
Q 30.90625 -1.40625 25 -1.40625 
Q 18.90625 -1.40625 14.296875 1.6875 
Q 9.703125 4.796875 7.203125 10 
Q 4.703125 15.203125 3.546875 21.09375 
Q 2.40625 27 2.40625 33.59375 
Q 2.40625 42.90625 4.703125 50.34375 
Q 7 57.796875 12.34375 62.6875 
Q 17.703125 67.59375 25.40625 67.59375 
Q 35.203125 67.59375 41.390625 58 
Q 47.59375 48.40625 47.59375 33 
z
M 38 32.5 
Q 38 48.296875 34.640625 56.640625 
Q 31.296875 65 24.796875 65 
Q 18.59375 65 15.296875 56.59375 
Q 12 48.203125 12 32.90625 
Q 12 17.5 15.296875 9.34375 
Q 18.59375 1.203125 25 1.203125 
Q 31.296875 1.203125 34.640625 9.34375 
Q 38 17.5 38 32.5 
z
" id="STIXGeneral-Regular-48"/>
      </defs>
      <g transform="translate(39.495 236.729375)scale(0.12 -0.12)">
       <use transform="translate(0 0.40625)" xlink:href="#STIXGeneral-Regular-48"/>
      </g>
     </g>
    </g>
    <g id="xtick_2">
     <g id="line2d_2">
      <g>
       <use style="stroke:#000000;stroke-width:0.8;" x="209.895" xlink:href="#m16f8771615" y="224.64"/>
      </g>
     </g>
     <g id="text_2">
      <!-- $\pi$ -->
      <defs>
       <path d="M 53.59375 42.796875 
L 51.5 35.40625 
L 41.296875 35.40625 
Q 41 34.296875 39.09375 27.84375 
Q 37.203125 21.40625 35.890625 16.75 
Q 34.59375 12.09375 34.59375 11.203125 
Q 34.59375 7 37.703125 7 
Q 42.09375 7 44.796875 13.09375 
L 46.40625 13.09375 
Q 45.09375 7.59375 41.4375 3.25 
Q 37.796875 -1.09375 32.703125 -1.09375 
Q 29.703125 -1.09375 28.25 1.046875 
Q 26.796875 3.203125 26.796875 6.40625 
Q 26.796875 9.796875 28.5 14.40625 
L 36.09375 35.40625 
L 25.703125 35.40625 
Q 24.5 32.203125 21.890625 22.953125 
Q 19.296875 13.703125 16.6875 8 
Q 14.09375 2.296875 10.5 -0.59375 
Q 8.796875 -1.796875 6.90625 -1.796875 
Q 4.90625 -1.796875 3.40625 -0.5 
Q 1.90625 0.796875 1.90625 2.59375 
Q 1.90625 6.703125 4.90625 7.5 
Q 9.90625 8.796875 12.09375 14.5 
L 20.296875 35.40625 
L 19.703125 35.40625 
Q 15.203125 35.40625 12.796875 34.5 
Q 10.40625 33.59375 7.40625 29.90625 
L 5.796875 29.90625 
Q 10 36.90625 14.546875 39.84375 
Q 19.09375 42.796875 26.5 42.796875 
z
" id="STIXGeneral-Italic-960"/>
      </defs>
      <g transform="translate(206.835 236.729375)scale(0.12 -0.12)">
       <use transform="translate(0 0.203125)" xlink:href="#STIXGeneral-Italic-960"/>
      </g>
     </g>
    </g>
    <g id="xtick_3">
     <g id="line2d_3">
      <g>
       <use style="stroke:#000000;stroke-width:0.8;" x="377.295" xlink:href="#m16f8771615" y="224.64"/>
      </g>
     </g>
     <g id="text_3">
      <!-- $2 \pi$ -->
      <defs>
       <path d="M 47.40625 13.703125 
L 42 0 
L 2.90625 0 
L 2.90625 1.203125 
L 20.703125 20.09375 
Q 27.703125 27.40625 30.703125 33.5 
Q 33.703125 39.59375 33.703125 46.09375 
Q 33.703125 52.796875 30 56.5 
Q 26.296875 60.203125 19.796875 60.203125 
Q 14.40625 60.203125 11.25 57.390625 
Q 8.09375 54.59375 5.09375 47.203125 
L 3 47.703125 
Q 4.703125 57 9.84375 62.296875 
Q 15 67.59375 23.796875 67.59375 
Q 32.09375 67.59375 37.1875 62.59375 
Q 42.296875 57.59375 42.296875 50 
Q 42.296875 38.703125 29.5 25.203125 
L 13 7.59375 
L 36.40625 7.59375 
Q 39.703125 7.59375 41.640625 8.890625 
Q 43.59375 10.203125 46 14.296875 
z
" id="STIXGeneral-Regular-50"/>
      </defs>
      <g transform="translate(371.235 236.729375)scale(0.12 -0.12)">
       <use transform="translate(0 0.40625)" xlink:href="#STIXGeneral-Regular-50"/>
       <use transform="translate(49.999985 0.40625)" xlink:href="#STIXGeneral-Italic-960"/>
      </g>
     </g>
    </g>
    <g id="text_4">
     <!-- $\theta_0 - \theta_1$ -->
     <defs>
      <path d="M 49.40625 51.09375 
Q 49.40625 39.59375 45.703125 29.09375 
Q 42 18.59375 36 10.59375 
Q 27.203125 -1.09375 15.5 -1.09375 
Q 9.5 -1.09375 6.09375 3.5 
Q 2.703125 8.09375 2.703125 16.09375 
Q 2.703125 31.203125 9.25 43.953125 
Q 15.796875 56.703125 24.90625 63.59375 
Q 30.5 67.796875 37.09375 67.796875 
Q 42.703125 67.796875 46.046875 63.6875 
Q 49.40625 59.59375 49.40625 51.09375 
z
M 14.703125 34.703125 
L 38 34.703125 
Q 41 44.90625 41 55.203125 
Q 41 65.703125 35.703125 65.703125 
Q 31.703125 65.703125 27 59.59375 
Q 22.296875 53.5 19.25 46.75 
Q 16.203125 40 14.703125 34.703125 
z
M 37.296875 31.5 
L 14 31.5 
Q 11.09375 23.90625 11.09375 15 
Q 11.09375 1 16.703125 1 
Q 20.09375 1 23.59375 4.296875 
Q 27.09375 7.59375 29.75 12.59375 
Q 32.40625 17.59375 34.34375 22.5 
Q 36.296875 27.40625 37.296875 31.5 
z
" id="STIXGeneral-Italic-952"/>
      <path d="M 62.09375 22 
L 6.40625 22 
L 6.40625 28.59375 
L 62.09375 28.59375 
z
" id="STIXGeneral-Regular-8722"/>
      <path d="M 39.40625 0 
L 11.796875 0 
L 11.796875 1.5 
Q 17.296875 1.796875 19.296875 3.546875 
Q 21.296875 5.296875 21.296875 9.5 
L 21.296875 54.40625 
Q 21.296875 59.296875 18.296875 59.296875 
Q 16.90625 59.296875 13.796875 58.09375 
L 11.09375 57.09375 
L 11.09375 58.5 
L 29 67.59375 
L 29.90625 67.296875 
L 29.90625 7.59375 
Q 29.90625 4.296875 31.90625 2.890625 
Q 33.90625 1.5 39.40625 1.5 
z
" id="STIXGeneral-Regular-49"/>
     </defs>
     <g transform="translate(193.515 251.70375)scale(0.12 -0.12)">
      <use transform="translate(0 0.203125)" xlink:href="#STIXGeneral-Italic-952"/>
      <use transform="translate(47.999985 -13.025)scale(0.7)" xlink:href="#STIXGeneral-Regular-48"/>
      <use transform="translate(101.849345 0.203125)" xlink:href="#STIXGeneral-Regular-8722"/>
      <use transform="translate(184.789326 0.203125)" xlink:href="#STIXGeneral-Italic-952"/>
      <use transform="translate(232.789311 -13.025)scale(0.7)" xlink:href="#STIXGeneral-Regular-49"/>
     </g>
    </g>
   </g>
   <g id="matplotlib.axis_2">
    <g id="ytick_1">
     <g id="line2d_4">
      <defs>
       <path d="M 0 0 
L 3.5 0 
" id="m00c80f23c0" style="stroke:#000000;stroke-width:0.8;"/>
      </defs>
      <g>
       <use style="stroke:#000000;stroke-width:0.8;" x="42.495" xlink:href="#m00c80f23c0" y="214.643397"/>
      </g>
     </g>
     <g id="text_5">
      <!-- 0.0 -->
      <defs>
       <path d="M 4.15625 35.296875 
Q 4.15625 48 6.765625 55.734375 
Q 9.375 63.484375 14.515625 67.671875 
Q 19.671875 71.875 27.484375 71.875 
Q 33.25 71.875 37.59375 69.546875 
Q 41.9375 67.234375 44.765625 62.859375 
Q 47.609375 58.5 49.21875 52.21875 
Q 50.828125 45.953125 50.828125 35.296875 
Q 50.828125 22.703125 48.234375 14.96875 
Q 45.65625 7.234375 40.5 3 
Q 35.359375 -1.21875 27.484375 -1.21875 
Q 17.140625 -1.21875 11.234375 6.203125 
Q 4.15625 15.140625 4.15625 35.296875 
z
M 13.1875 35.296875 
Q 13.1875 17.671875 17.3125 11.828125 
Q 21.4375 6 27.484375 6 
Q 33.546875 6 37.671875 11.859375 
Q 41.796875 17.71875 41.796875 35.296875 
Q 41.796875 52.984375 37.671875 58.78125 
Q 33.546875 64.59375 27.390625 64.59375 
Q 21.34375 64.59375 17.71875 59.46875 
Q 13.1875 52.9375 13.1875 35.296875 
z
" id="ArialMT-48"/>
       <path d="M 9.078125 0 
L 9.078125 10.015625 
L 19.09375 10.015625 
L 19.09375 0 
z
" id="ArialMT-46"/>
      </defs>
      <g transform="translate(22.315 218.938084)scale(0.12 -0.12)">
       <use xlink:href="#ArialMT-48"/>
       <use x="55.615234" xlink:href="#ArialMT-46"/>
       <use x="83.398438" xlink:href="#ArialMT-48"/>
      </g>
     </g>
    </g>
    <g id="ytick_2">
     <g id="line2d_5">
      <g>
       <use style="stroke:#000000;stroke-width:0.8;" x="42.495" xlink:href="#m00c80f23c0" y="180.792713"/>
      </g>
     </g>
     <g id="text_6">
      <!-- 0.5 -->
      <defs>
       <path d="M 4.15625 18.75 
L 13.375 19.53125 
Q 14.40625 12.796875 18.140625 9.390625 
Q 21.875 6 27.15625 6 
Q 33.5 6 37.890625 10.78125 
Q 42.28125 15.578125 42.28125 23.484375 
Q 42.28125 31 38.0625 35.34375 
Q 33.84375 39.703125 27 39.703125 
Q 22.75 39.703125 19.328125 37.765625 
Q 15.921875 35.84375 13.96875 32.765625 
L 5.71875 33.84375 
L 12.640625 70.609375 
L 48.25 70.609375 
L 48.25 62.203125 
L 19.671875 62.203125 
L 15.828125 42.96875 
Q 22.265625 47.46875 29.34375 47.46875 
Q 38.71875 47.46875 45.15625 40.96875 
Q 51.609375 34.46875 51.609375 24.265625 
Q 51.609375 14.546875 45.953125 7.46875 
Q 39.0625 -1.21875 27.15625 -1.21875 
Q 17.390625 -1.21875 11.203125 4.25 
Q 5.03125 9.71875 4.15625 18.75 
z
" id="ArialMT-53"/>
      </defs>
      <g transform="translate(22.315 185.0874)scale(0.12 -0.12)">
       <use xlink:href="#ArialMT-48"/>
       <use x="55.615234" xlink:href="#ArialMT-46"/>
       <use x="83.398438" xlink:href="#ArialMT-53"/>
      </g>
     </g>
    </g>
    <g id="ytick_3">
     <g id="line2d_6">
      <g>
       <use style="stroke:#000000;stroke-width:0.8;" x="42.495" xlink:href="#m00c80f23c0" y="146.942029"/>
      </g>
     </g>
     <g id="text_7">
      <!-- 1.0 -->
      <defs>
       <path d="M 37.25 0 
L 28.46875 0 
L 28.46875 56 
Q 25.296875 52.984375 20.140625 49.953125 
Q 14.984375 46.921875 10.890625 45.40625 
L 10.890625 53.90625 
Q 18.265625 57.375 23.78125 62.296875 
Q 29.296875 67.234375 31.59375 71.875 
L 37.25 71.875 
z
" id="ArialMT-49"/>
      </defs>
      <g transform="translate(22.315 151.236716)scale(0.12 -0.12)">
       <use xlink:href="#ArialMT-49"/>
       <use x="55.615234" xlink:href="#ArialMT-46"/>
       <use x="83.398438" xlink:href="#ArialMT-48"/>
      </g>
     </g>
    </g>
    <g id="ytick_4">
     <g id="line2d_7">
      <g>
       <use style="stroke:#000000;stroke-width:0.8;" x="42.495" xlink:href="#m00c80f23c0" y="113.091345"/>
      </g>
     </g>
     <g id="text_8">
      <!-- 1.5 -->
      <g transform="translate(22.315 117.386032)scale(0.12 -0.12)">
       <use xlink:href="#ArialMT-49"/>
       <use x="55.615234" xlink:href="#ArialMT-46"/>
       <use x="83.398438" xlink:href="#ArialMT-53"/>
      </g>
     </g>
    </g>
    <g id="ytick_5">
     <g id="line2d_8">
      <g>
       <use style="stroke:#000000;stroke-width:0.8;" x="42.495" xlink:href="#m00c80f23c0" y="79.240661"/>
      </g>
     </g>
     <g id="text_9">
      <!-- 2.0 -->
      <defs>
       <path d="M 50.34375 8.453125 
L 50.34375 0 
L 3.03125 0 
Q 2.9375 3.171875 4.046875 6.109375 
Q 5.859375 10.9375 9.828125 15.625 
Q 13.8125 20.3125 21.34375 26.46875 
Q 33.015625 36.03125 37.109375 41.625 
Q 41.21875 47.21875 41.21875 52.203125 
Q 41.21875 57.421875 37.46875 61 
Q 33.734375 64.59375 27.734375 64.59375 
Q 21.390625 64.59375 17.578125 60.78125 
Q 13.765625 56.984375 13.71875 50.25 
L 4.6875 51.171875 
Q 5.609375 61.28125 11.65625 66.578125 
Q 17.71875 71.875 27.9375 71.875 
Q 38.234375 71.875 44.234375 66.15625 
Q 50.25 60.453125 50.25 52 
Q 50.25 47.703125 48.484375 43.546875 
Q 46.734375 39.40625 42.65625 34.8125 
Q 38.578125 30.21875 29.109375 22.21875 
Q 21.1875 15.578125 18.9375 13.203125 
Q 16.703125 10.84375 15.234375 8.453125 
z
" id="ArialMT-50"/>
      </defs>
      <g transform="translate(22.315 83.535348)scale(0.12 -0.12)">
       <use xlink:href="#ArialMT-50"/>
       <use x="55.615234" xlink:href="#ArialMT-46"/>
       <use x="83.398438" xlink:href="#ArialMT-48"/>
      </g>
     </g>
    </g>
    <g id="ytick_6">
     <g id="line2d_9">
      <g>
       <use style="stroke:#000000;stroke-width:0.8;" x="42.495" xlink:href="#m00c80f23c0" y="45.389977"/>
      </g>
     </g>
     <g id="text_10">
      <!-- 2.5 -->
      <g transform="translate(22.315 49.684664)scale(0.12 -0.12)">
       <use xlink:href="#ArialMT-50"/>
       <use x="55.615234" xlink:href="#ArialMT-46"/>
       <use x="83.398438" xlink:href="#ArialMT-53"/>
      </g>
     </g>
    </g>
    <g id="ytick_7">
     <g id="line2d_10">
      <g>
       <use style="stroke:#000000;stroke-width:0.8;" x="42.495" xlink:href="#m00c80f23c0" y="11.539293"/>
      </g>
     </g>
     <g id="text_11">
      <!-- 3.0 -->
      <defs>
       <path d="M 4.203125 18.890625 
L 12.984375 20.0625 
Q 14.5 12.59375 18.140625 9.296875 
Q 21.78125 6 27 6 
Q 33.203125 6 37.46875 10.296875 
Q 41.75 14.59375 41.75 20.953125 
Q 41.75 27 37.796875 30.921875 
Q 33.84375 34.859375 27.734375 34.859375 
Q 25.25 34.859375 21.53125 33.890625 
L 22.515625 41.609375 
Q 23.390625 41.5 23.921875 41.5 
Q 29.546875 41.5 34.03125 44.421875 
Q 38.53125 47.359375 38.53125 53.46875 
Q 38.53125 58.296875 35.25 61.46875 
Q 31.984375 64.65625 26.8125 64.65625 
Q 21.6875 64.65625 18.265625 61.421875 
Q 14.84375 58.203125 13.875 51.765625 
L 5.078125 53.328125 
Q 6.6875 62.15625 12.390625 67.015625 
Q 18.109375 71.875 26.609375 71.875 
Q 32.46875 71.875 37.390625 69.359375 
Q 42.328125 66.84375 44.9375 62.5 
Q 47.5625 58.15625 47.5625 53.265625 
Q 47.5625 48.640625 45.0625 44.828125 
Q 42.578125 41.015625 37.703125 38.765625 
Q 44.046875 37.3125 47.5625 32.6875 
Q 51.078125 28.078125 51.078125 21.140625 
Q 51.078125 11.765625 44.234375 5.25 
Q 37.40625 -1.265625 26.953125 -1.265625 
Q 17.53125 -1.265625 11.296875 4.34375 
Q 5.078125 9.96875 4.203125 18.890625 
z
" id="ArialMT-51"/>
      </defs>
      <g transform="translate(22.315 15.83398)scale(0.12 -0.12)">
       <use xlink:href="#ArialMT-51"/>
       <use x="55.615234" xlink:href="#ArialMT-46"/>
       <use x="83.398438" xlink:href="#ArialMT-48"/>
      </g>
     </g>
    </g>
    <g id="text_12">
     <!-- density -->
     <defs>
      <path d="M 40.234375 0 
L 40.234375 6.546875 
Q 35.296875 -1.171875 25.734375 -1.171875 
Q 19.53125 -1.171875 14.328125 2.25 
Q 9.125 5.671875 6.265625 11.796875 
Q 3.421875 17.921875 3.421875 25.875 
Q 3.421875 33.640625 6 39.96875 
Q 8.59375 46.296875 13.765625 49.65625 
Q 18.953125 53.03125 25.34375 53.03125 
Q 30.03125 53.03125 33.6875 51.046875 
Q 37.359375 49.078125 39.65625 45.90625 
L 39.65625 71.578125 
L 48.390625 71.578125 
L 48.390625 0 
z
M 12.453125 25.875 
Q 12.453125 15.921875 16.640625 10.984375 
Q 20.84375 6.0625 26.5625 6.0625 
Q 32.328125 6.0625 36.34375 10.765625 
Q 40.375 15.484375 40.375 25.140625 
Q 40.375 35.796875 36.265625 40.765625 
Q 32.171875 45.75 26.171875 45.75 
Q 20.3125 45.75 16.375 40.96875 
Q 12.453125 36.1875 12.453125 25.875 
z
" id="ArialMT-100"/>
      <path d="M 42.09375 16.703125 
L 51.171875 15.578125 
Q 49.03125 7.625 43.21875 3.21875 
Q 37.40625 -1.171875 28.375 -1.171875 
Q 17 -1.171875 10.328125 5.828125 
Q 3.65625 12.84375 3.65625 25.484375 
Q 3.65625 38.578125 10.390625 45.796875 
Q 17.140625 53.03125 27.875 53.03125 
Q 38.28125 53.03125 44.875 45.953125 
Q 51.46875 38.875 51.46875 26.03125 
Q 51.46875 25.25 51.421875 23.6875 
L 12.75 23.6875 
Q 13.234375 15.140625 17.578125 10.59375 
Q 21.921875 6.0625 28.421875 6.0625 
Q 33.25 6.0625 36.671875 8.59375 
Q 40.09375 11.140625 42.09375 16.703125 
z
M 13.234375 30.90625 
L 42.1875 30.90625 
Q 41.609375 37.453125 38.875 40.71875 
Q 34.671875 45.796875 27.984375 45.796875 
Q 21.921875 45.796875 17.796875 41.75 
Q 13.671875 37.703125 13.234375 30.90625 
z
" id="ArialMT-101"/>
      <path d="M 6.59375 0 
L 6.59375 51.859375 
L 14.5 51.859375 
L 14.5 44.484375 
Q 20.21875 53.03125 31 53.03125 
Q 35.6875 53.03125 39.625 51.34375 
Q 43.5625 49.65625 45.515625 46.921875 
Q 47.46875 44.1875 48.25 40.4375 
Q 48.734375 37.984375 48.734375 31.890625 
L 48.734375 0 
L 39.9375 0 
L 39.9375 31.546875 
Q 39.9375 36.921875 38.90625 39.578125 
Q 37.890625 42.234375 35.28125 43.8125 
Q 32.671875 45.40625 29.15625 45.40625 
Q 23.53125 45.40625 19.453125 41.84375 
Q 15.375 38.28125 15.375 28.328125 
L 15.375 0 
z
" id="ArialMT-110"/>
      <path d="M 3.078125 15.484375 
L 11.765625 16.84375 
Q 12.5 11.625 15.84375 8.84375 
Q 19.1875 6.0625 25.203125 6.0625 
Q 31.25 6.0625 34.171875 8.515625 
Q 37.109375 10.984375 37.109375 14.3125 
Q 37.109375 17.28125 34.515625 19 
Q 32.71875 20.171875 25.53125 21.96875 
Q 15.875 24.421875 12.140625 26.203125 
Q 8.40625 27.984375 6.46875 31.125 
Q 4.546875 34.28125 4.546875 38.09375 
Q 4.546875 41.546875 6.125 44.5 
Q 7.71875 47.46875 10.453125 49.421875 
Q 12.5 50.921875 16.03125 51.96875 
Q 19.578125 53.03125 23.640625 53.03125 
Q 29.734375 53.03125 34.34375 51.265625 
Q 38.96875 49.515625 41.15625 46.5 
Q 43.359375 43.5 44.1875 38.484375 
L 35.59375 37.3125 
Q 35.015625 41.3125 32.203125 43.546875 
Q 29.390625 45.796875 24.265625 45.796875 
Q 18.21875 45.796875 15.625 43.796875 
Q 13.03125 41.796875 13.03125 39.109375 
Q 13.03125 37.40625 14.109375 36.03125 
Q 15.1875 34.625 17.484375 33.6875 
Q 18.796875 33.203125 25.25 31.453125 
Q 34.578125 28.953125 38.25 27.359375 
Q 41.9375 25.78125 44.03125 22.75 
Q 46.140625 19.734375 46.140625 15.234375 
Q 46.140625 10.84375 43.578125 6.953125 
Q 41.015625 3.078125 36.171875 0.953125 
Q 31.34375 -1.171875 25.25 -1.171875 
Q 15.140625 -1.171875 9.84375 3.03125 
Q 4.546875 7.234375 3.078125 15.484375 
z
" id="ArialMT-115"/>
      <path d="M 6.640625 61.46875 
L 6.640625 71.578125 
L 15.4375 71.578125 
L 15.4375 61.46875 
z
M 6.640625 0 
L 6.640625 51.859375 
L 15.4375 51.859375 
L 15.4375 0 
z
" id="ArialMT-105"/>
      <path d="M 25.78125 7.859375 
L 27.046875 0.09375 
Q 23.34375 -0.6875 20.40625 -0.6875 
Q 15.625 -0.6875 12.984375 0.828125 
Q 10.359375 2.34375 9.28125 4.8125 
Q 8.203125 7.28125 8.203125 15.1875 
L 8.203125 45.015625 
L 1.765625 45.015625 
L 1.765625 51.859375 
L 8.203125 51.859375 
L 8.203125 64.703125 
L 16.9375 69.96875 
L 16.9375 51.859375 
L 25.78125 51.859375 
L 25.78125 45.015625 
L 16.9375 45.015625 
L 16.9375 14.703125 
Q 16.9375 10.9375 17.40625 9.859375 
Q 17.875 8.796875 18.921875 8.15625 
Q 19.96875 7.515625 21.921875 7.515625 
Q 23.390625 7.515625 25.78125 7.859375 
z
" id="ArialMT-116"/>
      <path d="M 6.203125 -19.96875 
L 5.21875 -11.71875 
Q 8.109375 -12.5 10.25 -12.5 
Q 13.1875 -12.5 14.9375 -11.515625 
Q 16.703125 -10.546875 17.828125 -8.796875 
Q 18.65625 -7.46875 20.515625 -2.25 
Q 20.75 -1.515625 21.296875 -0.09375 
L 1.609375 51.859375 
L 11.078125 51.859375 
L 21.875 21.828125 
Q 23.96875 16.109375 25.640625 9.8125 
Q 27.15625 15.875 29.25 21.625 
L 40.328125 51.859375 
L 49.125 51.859375 
L 29.390625 -0.875 
Q 26.21875 -9.421875 24.46875 -12.640625 
Q 22.125 -17 19.09375 -19.015625 
Q 16.0625 -21.046875 11.859375 -21.046875 
Q 9.328125 -21.046875 6.203125 -19.96875 
z
" id="ArialMT-121"/>
     </defs>
     <g transform="translate(15.789375 134.929688)rotate(-90)scale(0.12 -0.12)">
      <use xlink:href="#ArialMT-100"/>
      <use x="55.615234" xlink:href="#ArialMT-101"/>
      <use x="111.230469" xlink:href="#ArialMT-110"/>
      <use x="166.845703" xlink:href="#ArialMT-115"/>
      <use x="216.845703" xlink:href="#ArialMT-105"/>
      <use x="239.0625" xlink:href="#ArialMT-116"/>
      <use x="266.845703" xlink:href="#ArialMT-121"/>
     </g>
    </g>
   </g>
   <g id="line2d_11">
    <path clip-path="url(#p1bdca8c771)" d="M 42.495 212.536013 
L 45.876818 214.756364 
L 49.258636 214.631299 
L 52.640455 214.645265 
L 56.022273 214.64303 
L 59.404091 214.643482 
L 62.785909 214.643374 
L 66.167727 214.643403 
L 69.549545 214.643394 
L 72.931364 214.643397 
L 76.313182 214.643396 
L 79.695 214.643397 
L 83.076818 214.643397 
L 86.458636 214.643397 
L 89.840455 214.643397 
L 93.222273 214.643397 
L 96.604091 214.643397 
L 99.985909 214.643397 
L 103.367727 214.643397 
L 106.749545 214.643397 
L 110.131364 214.643397 
L 113.513182 214.643397 
L 116.895 214.643397 
L 120.276818 214.643397 
L 123.658636 214.643397 
L 127.040455 214.643397 
L 130.422273 214.643397 
L 133.804091 214.643397 
L 137.185909 214.643397 
L 140.567727 214.643397 
L 143.949545 214.643397 
L 147.331364 214.643397 
L 150.713182 214.643397 
L 154.095 214.643397 
L 157.476818 214.643397 
L 160.858636 214.643397 
L 164.240455 214.643397 
L 167.622273 214.643397 
L 171.004091 214.643397 
L 174.385909 214.643397 
L 177.767727 214.643397 
L 181.149545 214.643397 
L 184.531364 214.643397 
L 187.913182 214.643397 
L 191.295 214.643397 
L 194.676818 214.643397 
L 198.058636 214.643397 
L 201.440455 214.643397 
L 204.822273 214.643397 
L 208.204091 214.643397 
L 211.585909 214.643397 
L 214.967727 214.643397 
L 218.349545 214.643397 
L 221.731364 214.643397 
L 225.113182 214.643397 
L 228.495 214.643397 
L 231.876818 214.643397 
L 235.258636 214.643397 
L 238.640455 214.643397 
L 242.022273 214.643397 
L 245.404091 214.643397 
L 248.785909 214.643397 
L 252.167727 214.643397 
L 255.549545 214.643397 
L 258.931364 214.643397 
L 262.313182 214.643397 
L 265.695 214.643397 
L 269.076818 214.643397 
L 272.458636 214.643397 
L 275.840455 214.643397 
L 279.222273 214.643397 
L 282.604091 214.643397 
L 285.985909 214.643397 
L 289.367727 214.643397 
L 292.749545 214.643397 
L 296.131364 214.643397 
L 299.513182 214.643396 
L 302.895 214.643394 
L 306.276818 214.643366 
L 309.658636 214.643043 
L 313.040455 214.640033 
L 316.422273 214.617637 
L 319.804091 214.48459 
L 323.185909 213.853256 
L 326.567727 211.457819 
L 329.949545 204.194107 
L 333.331364 186.661837 
L 336.713182 153.334944 
L 340.095 104.647433 
L 343.476818 53.192612 
L 346.858636 21.332634 
L 350.240455 26.787927 
L 353.622273 67.544086 
L 357.004091 122.587134 
L 360.385909 168.755597 
L 363.767727 195.943527 
L 367.149545 207.506236 
L 370.531364 211.148918 
L 373.913182 212.146186 
L 377.295 212.536013 
" style="fill:none;stroke:#ff7f0e;stroke-linecap:square;stroke-width:2;"/>
   </g>
   <g id="patch_103">
    <path d="M 42.495 224.64 
L 42.495 7.2 
" style="fill:none;stroke:#000000;stroke-linecap:square;stroke-linejoin:miter;stroke-width:0.8;"/>
   </g>
   <g id="patch_104">
    <path d="M 377.295 224.64 
L 377.295 7.2 
" style="fill:none;stroke:#000000;stroke-linecap:square;stroke-linejoin:miter;stroke-width:0.8;"/>
   </g>
   <g id="patch_105">
    <path d="M 42.495 224.64 
L 377.295 224.64 
" style="fill:none;stroke:#000000;stroke-linecap:square;stroke-linejoin:miter;stroke-width:0.8;"/>
   </g>
   <g id="patch_106">
    <path d="M 42.495 7.2 
L 377.295 7.2 
" style="fill:none;stroke:#000000;stroke-linecap:square;stroke-linejoin:miter;stroke-width:0.8;"/>
   </g>
  </g>
 </g>
 <defs>
  <clipPath id="p1bdca8c771">
   <rect height="217.44" width="334.8" x="42.495" y="7.2"/>
  </clipPath>
 </defs>
</svg>
